Coordinates
version=1
nRows=12
nColumns=33
inDegrees=yes

Units are S.I. units (second, meters, Newtons, ...)
Angles are in degrees.

endheader
time	ground_thorax_rot_x	ground_thorax_rot_y	ground_thorax_rot_z	ground_thorax_tx	ground_thorax_ty	ground_thorax_tz	clav_prot_r	clav_elev_r	scapula_abduction_r	scapula_elevation_r	scapula_upward_rot_r	scapula_winging_r	shoulder_elv_r	plane_of_elev_r	axial_rot_r	elbow_flexion_r	pro_sup_r	wrist_flex_r	wrist_dev_r	clav_prot_l	clav_elev_l	scapula_abduction_l	scapula_elevation_l	scapula_upward_rot_l	scapula_winging_l	shoulder_elv_l	plane_of_elev_l	axial_rot_l	elbow_flexion_l	pro_sup_l	wrist_flex_l	wrist_dev_l
      3.44000000	     90.00000000	     90.00000000	     90.00000000	   -245.65425950	    851.41898307	      7.71020993	     25.83593712	    -45.00000000	     45.00000000	    -45.00000000	      3.24278097	   1800.56752767	  -1882.20244133	    135.17247124	   -179.99999979	   1091.93303827	   -139.77031937	     20.90698498	     14.02839097	    -45.00000000	     11.19578458	     32.09437614	    -14.78940895	     45.00000000	  -2417.19065490	   1372.85311349	    130.11036701	    179.99999979	   1444.43460590	    217.99703772	      8.85219911	    -22.61323335
      3.45000000	     90.00000000	     90.00000000	     90.00000000	   -245.59390253	    851.20216288	      7.61493099	     26.02917534	    -45.00000000	     45.00000000	    -45.00000000	      3.27512144	   1800.73354379	  -1882.23688313	    135.21354485	   -179.99999979	   1091.89397755	   -139.88282979	     20.84349109	     13.52916662	    -45.00000000	     11.62813224	     32.06106797	    -15.00255239	     45.00000000	  -2417.07882355	   1372.71935301	    130.18214988	    179.99999979	   1444.30327167	    217.91234607	      8.76432368	    -22.72260797
      3.46000000	     90.00000000	     90.00000000	     90.00000000	   -245.45569163	    850.97635944	      7.51795952	     25.96027449	    -45.00000000	     45.00000000	    -45.00000000	      3.05848524	   1800.62583022	  -1882.09123902	    135.07076282	   -179.99999979	   1091.97119805	   -139.85510342	     20.94416466	     14.25437048	    -45.00000000	     11.50422448	     32.16643058	    -14.91905990	     45.00000000	  -2417.09713044	   1372.84926516	    130.12211203	    179.99999979	   1444.34398859	    217.88823837	      8.87977029	    -22.63352574
      3.47000000	     90.00000000	     90.00000000	     90.00000000	   -245.24805435	    850.75110779	      7.42750211	     26.02522529	    -45.00000000	     45.00000000	    -45.00000000	      3.18475686	   1800.74009220	  -1882.20142918	    135.23845389	   -179.99999979	   1092.11675022	   -140.01163478	     20.73941687	     13.59442346	    -45.00000000	     11.64887173	     32.22198581	    -14.98810406	     45.00000000	  -2417.07765224	   1372.84438821	    130.13888863	    179.99999979	   1444.38703474	    217.80228707	      8.83546113	    -22.68681689
      3.48000000	     90.00000000	     90.00000000	     90.00000000	   -244.97523897	    850.52686437	      7.34571736	     25.99085524	    -45.00000000	     45.00000000	    -45.00000000	      3.02496414	   1800.67915954	  -1882.01948150	    135.06039144	   -179.99999979	   1091.93102174	   -140.04284405	     20.94288473	     14.28994552	    -45.00000000	     11.67171130	     32.26462724	    -14.99959336	     45.00000000	  -2417.04200430	   1372.87541517	    130.11196001	    179.99999979	   1444.35502610	    217.72918067	      8.91741341	    -22.63983048
      3.49000000	     90.00000000	     90.00000000	     90.00000000	   -244.64586463	    850.30735123	      7.27614434	     26.04018661	    -45.00000000	     45.00000000	    -45.00000000	      3.21801928	   1800.77482052	  -1882.12592394	    135.25632673	   -179.99999979	   1092.01375615	   -140.19119969	     20.73488688	     13.74252150	    -45.00000000	     11.73805577	     32.29605929	    -15.02637140	     45.00000000	  -2417.03435546	   1372.88944391	    130.13189181	    179.99999979	   1444.36128823	    217.62325693	      8.91707349	    -22.66520397
      3.50000000	     90.00000000	     90.00000000	     90.00000000	   -244.26724792	    850.09337309	      7.22056434	     25.99663611	    -45.00000000	     45.00000000	    -45.00000000	      3.04242898	   1800.66903680	  -1881.94129297	    135.05220797	   -179.99999979	   1091.77504947	   -140.22579107	     20.97438785	     14.38576064	    -45.00000000	     11.77601123	     32.32955399	    -15.06005623	     45.00000000	  -2416.98660779	   1372.89400759	    130.11426072	    179.99999979	   1444.32441167	    217.52236702	      8.98338049	    -22.63677522
      3.51000000	     90.00000000	     90.00000000	     90.00000000	   -243.85382880	    849.88920769	      7.18028809	     26.08193764	    -45.00000000	     45.00000000	    -45.00000000	      3.52176209	   1801.03690481	  -1882.23955703	    135.52648006	   -179.99999979	   1091.67290847	   -140.38068762	     20.66006305	     13.61519358	    -45.00000000	     11.78423577	     32.19879180	    -15.28690373	     45.00000000	  -2417.00257983	   1372.79230175	    130.32063006	    179.99999979	   1443.93388045	    217.35883769	      8.95107308	    -22.71500288
      3.52000000	     90.00000000	     90.00000000	     90.00000000	   -243.39380430	    849.68622226	      7.15269006	     25.96503883	    -45.00000000	     45.00000000	    -45.00000000	      2.98863930	   1800.38562625	  -1881.65822388	    134.80400354	   -179.99999979	   1091.56870615	   -140.34822573	     21.12126360	     14.68333961	    -45.00000000	     11.79832082	     32.27425938	    -15.16691677	     45.00000000	  -2416.96753870	   1372.92903890	    130.18042179	    179.99999979	   1444.16027907	    217.27304746	      9.06298219	    -22.65692261
      3.53000000	     90.00000000	     90.00000000	     90.00000000	   -242.89328052	    849.48636484	      7.13707922	     26.05593118	    -45.00000000	     45.00000000	    -45.00000000	      3.37039459	   1800.59188316	  -1881.92792542	    135.29911564	   -179.99999979	   1091.79264526	   -140.43878032	     20.73899176	     14.05152463	    -45.00000000	     11.80200948	     32.29410183	    -15.16003484	     45.00000000	  -2416.95815936	   1373.01051199	    130.20598821	    179.99999979	   1444.19656731	    217.12212054	      9.11382162	    -22.65351889
      3.54000000	     90.00000000	     90.00000000	     90.00000000	   -242.35306586	    849.28943534	      7.13114790	     26.02434536	    -45.00000000	     45.00000000	    -45.00000000	      3.39317771	   1800.55117669	  -1881.79134831	    135.26707426	   -179.99999979	   1091.55642656	   -140.44503303	     20.93128296	     14.53193705	    -45.00000000	     11.83571610	     32.31252956	    -15.15729492	     45.00000000	  -2416.90635558	   1372.95079809	    130.17870537	    179.99999979	   1444.18775591	    216.97878110	      9.17941434	    -22.63015302
      3.55000000	     90.00000000	     90.00000000	     90.00000000	   -241.76181800	    849.09097204	      7.13199876	     26.06202237	    -45.00000000	     45.00000000	    -45.00000000	      3.79822156	   1800.74449174	  -1881.99317366	    135.39288362	   -179.99999979	   1090.95574332	   -140.59251975	     20.79643427	     13.99082216	    -45.00000000	     11.86095742	     32.26704606	    -15.24140854	     45.00000000	  -2416.90142167	   1372.97312646	    130.24583690	    179.99999979	   1443.98610342	    216.81944253	      9.21505785	    -22.66180903
